<?xml version="1.0" encoding="UTF-8"?>
<svg id="Capa_2" data-name="Capa 2" xmlns="http://www.w3.org/2000/svg" viewBox="0 0 775.95 292.11">
  <defs>
    <style>
      .cls-1 {
        fill: #fff;
      }
    </style>
  </defs>
  <g id="Capa_1-2" data-name="Capa 1">
    <g>
      <path class="cls-1" d="M80.38,252.88c-21.26,0-38.57-15.87-39.18-35.67-.01-.36-.02-.71-.02-1.07s0-.72.02-1.07V.6H0v215.54c0,28.28,16.62,52.91,41.21,65.8,6.26,3.28,13.03,5.8,20.18,7.42,6.09,1.38,12.45,2.12,19,2.12-6.55,0,93.11.02,93.11.02v-38.62h-93.11Z"/>
      <path class="cls-1" d="M326.61,13.28c-13.28-7.71-28.93-12.16-45.7-12.16s-32.42,4.46-45.7,12.16c-11.02,6.4-20.41,15.05-27.42,25.26-8.72,12.7-13.78,27.81-13.78,44.04v90.27h-87.26v38.62h172.82v-38.62h-44.35v-91.47c0-23.66,20.46-42.83,45.7-42.83s45.7,19.18,45.7,42.83v209.63h41.21V82.57c0-16.22-5.06-31.34-13.78-44.04-7.01-10.21-16.4-18.86-27.42-25.26Z"/>
      <path class="cls-1" d="M679.16,211.55c29.17-3.77,54.76-18.05,72.29-38.63,15.33-17.99,24.5-40.8,24.5-65.62,0-26.25-10.25-50.25-27.2-68.68-20.1-21.85-49.61-37.96-82.64-38.62h-58.45v38.62h54.93c39.93,0,71.3,31.26,71.3,68.68,0,.44,0,.88-.01,1.31-.73,35.82-32.37,64.31-70.6,64.31h-55.62v30.92l8.96,7.71,48.74,41.93,44.89,38.63h60.94l-93.43-80.38c.47-.06.94-.11,1.4-.17Z"/>
      <path class="cls-1" d="M582.38,253.49h0s-22.92,0-22.92,0h-70.19c-1.99,0-3.94-.14-5.84-.41-.11-.02-.22-.04-.32-.05-.52-.08-1.04-.16-1.55-.25-.16-.03-.32-.07-.48-.1-.46-.09-.91-.18-1.36-.29-.19-.04-.37-.1-.56-.14-.42-.1-.83-.21-1.24-.32-.2-.06-.4-.12-.61-.18-.39-.12-.78-.23-1.16-.36-.21-.07-.42-.15-.63-.22-.37-.13-.74-.26-1.1-.4-.22-.08-.43-.17-.64-.26-.35-.14-.7-.28-1.05-.44-.22-.1-.43-.2-.65-.29-.34-.15-.67-.31-1-.47-.22-.11-.43-.22-.64-.33-.32-.17-.64-.33-.96-.51-.21-.12-.42-.24-.63-.36-.31-.18-.62-.36-.92-.54-.21-.13-.42-.26-.62-.39-.3-.19-.59-.38-.88-.58-.21-.14-.41-.28-.61-.42-.28-.2-.57-.4-.85-.61-.2-.15-.4-.3-.59-.45-.27-.21-.54-.42-.81-.64-.19-.16-.38-.32-.57-.48-.26-.22-.52-.44-.77-.67-.19-.17-.37-.34-.55-.51-.25-.23-.49-.46-.73-.7-.18-.18-.36-.35-.53-.53-.24-.24-.47-.48-.7-.73-.17-.18-.34-.37-.51-.56-.22-.25-.44-.5-.66-.76-.16-.19-.32-.38-.48-.58-.21-.26-.42-.52-.62-.79-.15-.2-.31-.4-.45-.6-.2-.27-.39-.54-.58-.81-.14-.21-.29-.41-.42-.62-.18-.28-.36-.56-.54-.84-.13-.21-.27-.42-.39-.64-.17-.29-.33-.58-.5-.87-.12-.22-.25-.44-.36-.66-.16-.29-.31-.59-.45-.89-.11-.22-.22-.44-.33-.67-.14-.3-.28-.61-.41-.92-.1-.23-.2-.45-.3-.68-.13-.31-.25-.63-.37-.95-.09-.23-.18-.46-.26-.69-.11-.32-.22-.65-.32-.98-.07-.23-.15-.46-.22-.69-.1-.34-.19-.68-.28-1.02-.06-.23-.13-.46-.18-.69-.09-.35-.16-.71-.23-1.06-.05-.22-.1-.45-.14-.67-.07-.38-.13-.76-.19-1.14-.03-.21-.07-.42-.1-.63-.06-.43-.1-.86-.14-1.29-.02-.17-.04-.33-.05-.5-.05-.6-.09-1.21-.1-1.82-.01-.36-.02-.71-.02-1.07s0-.71.02-1.07v-4.12h114.04v-38.62h-114.04v-98.66c.59-19.44,17.3-35.09,38.03-35.65h86.27V0h-85.13c-14.23,0-27.58,3.47-39.18,9.54-12.99,6.81-23.76,16.9-31.03,29.08-6.31,10.57-9.97,22.71-10.16,35.63h-.02v142.48h0c0,.86.02,1.71.05,2.56.01.41.04.81.06,1.21.02.43.04.87.07,1.3.04.55.09,1.09.14,1.63.03.28.05.56.08.84.07.64.15,1.27.23,1.9.02.18.04.35.07.53.1.7.21,1.4.33,2.09.02.1.03.2.05.3.13.74.28,1.48.43,2.21,0,.05.02.1.03.15.16.76.34,1.53.52,2.28,0,.02,0,.04.01.06.19.77.39,1.53.61,2.28,0,0,0,.02,0,.03h-.05c1.74,6.13,4.28,11.96,7.51,17.37,7.27,12.17,18.03,22.26,31.02,29.06h0c6.26,3.28,13.03,5.8,20.18,7.42,6.02,1.37,12.31,2.1,18.78,2.12h0c.07,0,.14,0,.21,0,1.17,0,10.96,0,25.24,0,27.66,0,67.92.01,67.92.01h0c28,0,54.16,0,64.98,0l-44.28-38.62h-20.7Z"/>
    </g>
  </g>
</svg>